<svg xmlns="http://www.w3.org/2000/svg" viewBox="0 0 500 500">
  <g transform="matrix(1, 0, 0, 1, -148.999985, -57.678963)">
    <title>Layer 1</title>
    <g>
      <path d="m265.89391,477.4617c-14.57841,-6.64175 -28.48536,-14.27093 -41.78542,-23.13798c-1.50111,-1.00077 -2.98338,-2.04652 -4.39701,-3.18074c-5.3722,-4.31026 -6.36016,-8.96113 -3.19123,-15.21484c3.54263,-6.99116 7.15811,-13.94044 10.73042,-20.9146c1.80407,-3.52206 3.56695,-7.06812 5.38592,-10.58134c0.37989,-0.73372 0.58766,-1.63776 1.44335,-2.07832c0.17879,0.06922 0.44116,0.08426 0.56556,0.23144c4.99854,5.91376 11.43035,9.64517 17.90974,13.28098c25.98372,14.58034 53.15201,25.82093 81.84255,32.72833c11.7894,2.83839 23.66182,5.13523 35.69729,6.50695c11.23861,1.2809 22.49794,2.03397 33.78801,1.77131c16.30838,-0.37939 32.52407,-1.78221 48.61283,-4.93478c17.81892,-3.49154 35.24034,-8.40594 52.14766,-15.31119c18.04807,-7.37114 35.29434,-16.48708 51.66275,-27.46074c2.82343,-1.89289 5.0334,-4.55038 7.36474,-6.83489c1.0585,0.34671 1.28318,1.16046 1.6363,1.82698c5.29954,10.00352 10.58773,20.01382 15.87473,30.0249c0.83453,1.58021 1.63667,3.20654 1.9593,4.98442c0.58578,3.22813 -0.23123,5.97963 -2.50898,8.35197c-6.87889,7.16457 -14.87485,12.66445 -23.18064,17.66519c-20.3442,12.2488 -41.91897,21.38518 -64.34379,28.26353c-13.39429,4.10843 -26.97578,7.37383 -40.76561,9.64089c-9.62692,1.58268 -19.28391,2.68505 -29.00889,3.39539c-10.03569,0.73307 -20.07125,1.08135 -30.10095,0.72182c-21.10138,-0.75636 -41.96482,-3.5656 -62.64932,-8.2451c-22.16234,-5.01386 -43.65608,-12.12411 -64.6893,-21.4996m278.67008,-45.1583c-1.49787,-1.97792 -2.47654,-0.10975 -3.8978,0.47798c2.14503,4.78158 4.2136,9.39279 6.44047,14.35681c-1.59884,-0.37305 -2.14647,-1.26715 -2.81043,-1.97606c-2.66098,-2.84116 -5.33355,-5.67134 -7.93953,-8.56909c-1.67629,-1.86391 -2.78075,0.07553 -4.04623,0.62334c-1.29363,0.56001 -1.04819,1.67566 -0.54605,2.77753c2.7087,5.94394 5.39396,11.90002 8.12037,17.83471c0.27553,0.5997 0.51261,1.32524 1.21483,1.56242c3.04388,-1.35921 3.0506,-1.36263 1.70405,-4.3401c-1.02517,-2.26689 -2.07,-4.52365 -3.10643,-6.78477c-0.72161,-1.57435 -1.44382,-3.14839 -2.16573,-4.72254c0.17171,-0.12984 0.34342,-0.25969 0.5151,-0.38951c2.76396,2.88792 5.55308,5.74918 8.28555,8.67048c3.42248,3.65904 3.40263,3.68069 7.33017,0.6377c0.05029,-0.03898 0.06071,-0.13627 0.12186,-0.28402c-3.00662,-6.49567 -6.03607,-13.04055 -9.2202,-19.87488m-300.7081,-8.16493c-1.32204,-0.79726 -2.64408,-1.59453 -4.01394,-2.42064c-3.66092,6.72968 -7.1899,13.23961 -10.74766,19.73165c-0.5191,0.94723 -0.12003,1.5045 0.57888,1.92546c2.17853,1.31213 4.33571,2.68038 6.59173,3.82449c1.25931,0.63862 2.68841,0.72848 4.08379,0.14812c4.10433,-1.70703 9.67016,-10.92154 9.4085,-15.62819c-0.02165,-0.38936 -0.08636,-0.77675 -0.14296,-1.16308c-0.49766,-3.39739 -2.91645,-4.89582 -5.75835,-6.41781m317.68957,23.4137c0.56409,-0.37382 1.13135,-0.74232 1.69173,-1.12234c3.95936,-2.68502 5.10002,-5.73288 3.57973,-10.44228c-1.31595,-4.07638 -3.5894,-7.57382 -6.67157,-10.38542c-1.61022,-1.46884 -3.63424,-1.91328 -5.61964,-1.1337c-2.77049,1.08779 -5.05022,3.10275 -7.61185,4.8988c3.62127,6.88623 7.13739,13.57247 10.64341,20.23956c1.4964,-0.3121 2.5366,-1.24965 3.98819,-2.05462m-63.4824,28.49584c1.57594,2.01354 2.98858,0.43543 4.7769,-0.1809c-2.01156,-3.28478 -3.25131,-6.87224 -6.76708,-8.64655c0.4542,-0.67016 0.80894,-1.07971 1.04228,-1.55654c1.3834,-2.82698 0.74771,-5.50975 -0.70033,-8.02915c-1.17868,-2.05073 -3.0197,-3.18342 -5.25992,-2.6553c-2.78116,0.65563 -5.4853,1.68134 -8.27429,2.56348c0.07106,0.61504 0.04655,1.02225 0.169,1.37099c2.27564,6.48031 3.77852,13.20684 5.57475,19.83914c0.29608,1.09317 0.48867,1.97669 1.8893,1.44298c1.18924,-0.45313 2.57094,-0.53729 1.99017,-2.55915c-0.55987,-1.94927 -0.95758,-3.95145 -1.51934,-5.90004c-0.45079,-1.56366 0.25365,-1.98811 1.51837,-2.06197c1.19715,-0.06988 1.91957,0.6569 2.52231,1.61206c0.94748,1.50151 1.89011,3.00644 3.03787,4.76095m3.38457,-23.9128c-0.88059,1.51854 -1.33588,3.1609 -1.07361,4.94119c0.61042,4.14322 1.93579,8.05645 3.63708,11.81194c1.73852,3.83758 4.68259,5.28073 8.12703,4.1743c4.17835,-1.34216 6.15641,-4.22244 5.54965,-8.56479c-0.54489,-3.89959 -1.68837,-7.65489 -3.57602,-11.0743c-3.09988,-5.61541 -8.11389,-6.21404 -12.66412,-1.28835m-71.65883,16.15046c-1.52749,1.14679 -2.35577,2.72726 -2.72713,4.66809c-0.87529,4.57436 -0.21298,9.04727 0.76028,13.4838c0.59266,2.70169 2.13854,4.57958 4.70981,5.44993c2.57757,0.87254 4.5746,-0.34958 6.57356,-2.03075c0.8067,0.72341 1.62019,1.51113 2.77545,0.7288c0.23724,-2.17847 -0.33546,-4.32678 -0.40327,-6.50109c-0.19397,-6.2205 0.20293,-6.12309 -6.67083,-5.25182c-1.06717,0.13527 -1.64973,0.576 -1.39223,1.83039c0.22538,1.09801 0.53565,1.97859 1.8916,1.59915c0.63268,-0.17707 1.52067,-0.32266 1.7695,0.45959c0.39969,1.25654 0.53002,2.65605 -0.15124,3.872c-0.56818,1.01417 -1.52725,1.41998 -2.65909,1.33752c-1.29371,-0.09427 -2.08045,-0.93443 -2.36303,-2.13709c-0.89776,-3.82066 -1.32857,-7.71808 -1.03356,-11.6529c0.11002,-1.46763 0.80241,-2.71967 2.38033,-2.99548c1.45284,-0.25392 2.52631,0.44792 2.98992,1.83448c0.68643,2.05312 2.11284,1.1459 3.12263,0.8427c1.37441,-0.41272 0.67198,-1.65911 0.37521,-2.56206c-1.28746,-3.91718 -5.035,-5.12551 -9.9479,-2.97525m44.51697,15.7538c2.49425,0.66716 4.84534,0.5773 6.7439,-1.57499c0.5909,-0.66987 1.11293,-0.59128 1.92726,-0.41854c1.25754,0.26673 2.18371,-0.26402 1.72775,-2.00385c-0.45472,-1.73496 -0.73307,-3.52354 -1.21172,-5.24997c-1.79236,-6.46482 -0.29205,-5.68408 -6.7511,-3.95503c-0.9975,0.26704 -1.92543,0.53221 -1.62455,1.96473c0.27274,1.2986 0.98612,1.85881 2.25458,1.48994c0.55003,-0.15998 1.11562,-0.46132 1.64274,0.12543c0.76789,0.85472 0.50784,4.16556 -0.41757,5.05549c-1.3193,1.26873 -3.06882,1.21719 -3.97666,-0.51538c-2.00103,-3.81881 -2.81111,-8.05322 -2.90288,-12.39727c-0.02705,-1.28044 0.76321,-2.40077 2.00138,-2.85892c1.07286,-0.39701 2.12871,-0.13786 2.78075,0.85775c1.43685,2.19415 2.79245,1.14056 4.23142,0.14475c-1.26656,-3.94439 -3.39467,-5.50257 -6.75085,-5.03822c-3.72604,0.51552 -5.75193,2.71846 -6.09982,6.54607c-0.40164,4.41857 0.74915,8.55389 2.0436,12.64525c0.70068,2.21447 1.9362,4.06273 4.38176,5.18274m-28.62028,0.75287c0.13854,1.08538 0.34881,2.16705 0.39823,3.25701c0.06767,1.49346 0.5828,2.1791 2.08132,1.7953c1.41828,-0.36328 2.43741,-0.67722 1.88808,-2.78053c-0.59921,-2.29427 -0.70366,-4.73497 -1.04066,-7.2373c1.15258,-0.27924 2.08646,-0.45775 2.99354,-0.73549c1.7516,-0.5363 2.5883,-0.04526 2.66469,2.06508c0.06748,1.86383 0.6235,3.70231 0.78067,5.56945c0.12231,1.45319 0.66304,1.98387 1.9902,1.67751c1.24348,-0.28705 2.52295,-0.38155 2.1544,-2.41657c-1.17083,-6.46459 -2.24276,-12.94945 -3.39765,-19.41739c-0.16659,-0.93302 0.18149,-2.47437 -1.61596,-2.06574c-1.4358,0.32634 -2.8009,0.56822 -2.22947,2.79713c0.34537,1.34735 0.36417,2.78619 0.58204,4.17462c0.54151,3.45098 0.54817,3.41633 -2.68903,4.02182c-1.33415,0.24952 -2.07769,0.02992 -2.19606,-1.65614c-0.14783,-2.10625 -0.59128,-4.18696 -0.83274,-6.28839c-0.24282,-2.11325 -1.71396,-1.23408 -2.74035,-1.29494c-1.20828,-0.0717 -1.48008,0.77608 -1.3121,1.88859c0.8169,5.41153 1.63186,10.82334 2.52084,16.64598m-69.97481,6.22263c0.70265,-7.53023 1.4053,-15.06046 2.10432,-22.55195c-3.57443,-0.75676 -3.53964,-0.7495 -4.14946,2.55549c-0.39327,2.13136 -0.16606,4.3764 -1.04685,6.51879c-0.79659,0 -1.59385,-0.02234 -2.38963,0.00447c-1.89856,0.06392 -2.75253,-0.67097 -2.22239,-2.84834c0.34763,-1.42779 0.42287,-2.93119 0.61466,-4.40151c0.1984,-1.5211 0.14476,-2.80518 -1.7395,-3.08742c-1.99652,-0.29907 -2.13356,1.10023 -2.31887,2.56207c-0.40291,3.17834 -0.90048,6.34608 -1.20434,9.53489c-0.36087,3.78727 -1.15984,7.53481 -1.12563,11.34846c3.76711,0.67841 3.93881,0.5334 4.24939,-3.17644c0.09777,-1.16769 0.34277,-2.3231 0.41165,-3.4914c0.17272,-2.93027 0.21196,-2.79777 3.04591,-2.65233c2.34468,0.12033 2.9744,0.9773 2.305,3.33162c-0.33474,1.17729 -0.24343,2.48682 -0.39658,3.7293c-0.13256,1.07541 -0.68318,2.43525 0.21991,3.09387c0.98796,0.72052 2.35674,0.74863 3.64242,-0.4696m-54.11483,-23.51432c0.12648,-0.85098 0.33872,-1.69904 0.36456,-2.55348c0.11038,-3.65166 -1.09789,-7.09898 -4.75343,-8.3388c-3.84198,-1.30304 -6.89792,-0.19206 -8.67725,3.40099c-1.52075,3.07087 -2.54986,6.37626 -2.931,9.81179c-0.28078,2.5309 -0.62808,5.22641 1.09289,7.4707c2.75455,3.59215 9.10568,5.33288 12.39957,-1.36318c1.2457,-2.53237 1.74681,-5.31561 2.50466,-8.42802m93.95094,21.63034c-0.24193,-5.87755 -0.52412,-11.75371 -0.69751,-17.63357c-0.04336,-1.4691 -0.44816,-2.16676 -1.8987,-2.17602c-1.50033,-0.00957 -1.92022,0.79024 -1.85556,2.21641c0.05689,1.25504 0.02367,2.5149 0.02459,3.77262c0.00263,3.6804 -0.00057,3.64258 -3.52007,3.86298c-1.13628,0.07115 -1.66059,-0.29714 -1.65246,-1.53564c0.01137,-1.72899 -0.01043,-3.45905 -0.05749,-5.18741c-0.04184,-1.53555 -0.04278,-2.99595 -2.18793,-2.96288c-2.11352,0.03261 -1.85737,1.46913 -1.89217,2.894c-0.14403,5.89762 0.24534,11.77934 0.40432,17.66828c0.09353,3.4635 0.51784,3.86165 3.75526,2.82925c0,-2.11922 -0.00238,-4.22343 0.00051,-6.3276c0.00528,-3.8101 0.02646,-3.77381 3.58623,-3.68896c1.38844,0.03312 2.02895,0.49026 1.97747,2.04294c-0.0651,1.96228 0.0293,3.92992 0.0055,5.89458c-0.01622,1.3355 0.41773,2.0127 1.79718,2.02919c2.18988,0.02615 2.39777,-0.19664 2.21084,-3.69819m112.71572,-37.59087c0.68684,1.90664 1.49034,3.77695 2.027,5.73035c0.51364,1.86956 0.34144,3.64696 -1.75445,4.43898c-2.00571,0.75797 -3.10072,-0.45181 -3.82209,-2.16896c-0.90377,-2.15145 -1.61672,-4.39443 -2.53604,-6.53764c-1.20847,-2.81726 -1.87952,-5.90355 -3.51035,-8.54683c-1.33799,0.53337 -2.57121,0.81281 -3.51103,1.94008c1.9636,5.0345 3.8906,10.04254 5.88369,15.02059c0.34123,0.85224 0.9038,1.63051 1.46859,2.35c1.83045,2.33189 4.51056,3.04544 7.17866,1.98255c4.26584,-1.69936 5.88751,-5.00317 4.61947,-9.74381c-1.50407,-5.62319 -4.74344,-10.43121 -6.4985,-15.89803c-3.74656,0.98731 -3.84803,1.18087 -2.4844,4.42508c0.93532,2.22525 1.87481,4.44852 2.93943,7.00765m-191.33587,21.83915c0.85507,-1.23878 1.18835,-2.71022 1.46746,-4.15824c0.76839,-3.98651 -0.90254,-6.74458 -4.60296,-7.74662c-1.63899,-0.4438 -3.28865,-0.84328 -4.93482,-1.25677c-1.37524,-0.34546 -2.29766,-0.28642 -2.64025,1.66453c-0.64786,3.68934 -1.64488,7.30804 -2.45715,10.96607c-0.75176,3.38548 -1.4517,6.78399 -2.16862,10.14938c3.2779,1.02536 3.88176,2.00007 4.63535,-2.47099c0.15539,-0.92184 0.43794,-1.81865 0.64008,-2.73245c0.69777,-3.15436 0.70397,-3.20319 3.62335,-2.52222c2.35646,0.54966 4.53198,0.55741 6.43756,-1.89268m-67.79356,-26.70523c0.30421,-1.45258 0.58701,-2.91066 0.91693,-4.35661c0.76791,-3.36556 0.46742,-3.83484 -3.03673,-4.47522c-0.15417,0.40041 -0.39391,0.80987 -0.46948,1.25115c-1.19994,7.00716 -2.35636,14.02282 -3.57609,21.026c-0.37231,2.13767 1.21374,2.3082 2.37061,3.05691c1.22027,0.7898 1.98046,0.45671 2.76611,-0.66353c3.2676,-4.65921 6.60092,-9.26635 9.8542,-13.93671c1.06669,-1.53134 2.49015,-2.83375 3.06894,-4.72966c-3.90139,-2.11213 -3.18936,-1.92892 -5.5017,1.35298c-2.21236,3.13995 -4.23191,6.4332 -6.3981,9.61123c-0.47408,0.69556 -0.68066,1.77001 -2.01973,1.93653c0.65296,-3.31995 1.27975,-6.5068 2.02503,-10.07307m-16.36208,-0.84702c1.92927,0.50301 3.52183,1.96845 5.66711,2.31226c0.48853,-1.05093 1.28406,-1.90528 1.19478,-3.24889c-1.81352,-0.95493 -3.57211,-1.88095 -5.48744,-2.88948c0.53751,-1.1935 1.02662,-2.15042 1.40754,-3.15393c0.66093,-1.74116 1.59547,-2.19772 3.24002,-1.23241c1.39104,0.81649 2.76663,1.78229 4.40597,2.05502c0.70071,-1.04159 1.32303,-1.99543 1.36159,-3.39324c-3.22478,-1.63931 -6.45881,-3.28329 -9.79281,-4.97811c-3.42914,7.12484 -6.74753,14.01959 -10.11103,21.00804c2.69009,1.91009 5.49243,3.13046 8.21089,4.51016c2.74333,1.3923 2.87365,1.29319 3.80184,-2.12415c-0.7741,-1.00991 -1.97721,-1.27727 -3.01913,-1.81706c-4.15068,-2.15033 -4.30766,-2.87925 -1.40067,-6.9416c0.04083,-0.05705 0.1271,-0.07724 0.52136,-0.10661m134.99321,37.04678c0.22132,0.00251 0.44296,-0.00216 0.66392,0.00873c1.33919,0.06593 2.46501,0.06432 2.46815,-1.99347c0.00326,-2.13551 -1.24342,-1.92555 -2.51454,-1.92947c-0.6636,-0.00207 -1.32697,-0.04823 -1.99063,-0.06683c-2.2909,-0.0642 -1.67418,-1.90128 -1.72291,-3.27555c-0.05033,-1.41928 0.0938,-2.72083 1.95165,-2.64902c1.75066,0.06772 3.50544,0.01456 5.24875,0.01456c0.59625,-2.81348 0.41017,-3.76325 -1.0141,-3.82633c-3.20934,-0.14213 -6.42804,-0.0446 -9.74314,-0.0446c-0.16089,2.4716 -0.3562,4.88214 -0.46685,7.29709c-0.21535,4.7002 -0.37827,9.40306 -0.5745,14.10429c-0.04525,1.08417 0.19806,1.76497 1.4107,1.87516c3.14516,0.28579 6.28782,0.51964 9.42781,0.48358c0.86782,-3.35884 0.50284,-3.93635 -2.44714,-3.97956c-0.9589,-0.01404 -1.91815,-0.02108 -2.87633,-0.05818c-0.4407,-0.0171 -1.04632,-0.03235 -1.15398,-0.51486c-0.39486,-1.76996 -0.60513,-3.68778 0.10308,-5.30535c0.52909,-1.20851 1.8676,-0.07478 3.23004,-0.14019m-99.0088,-21.7373c1.3816,-2.68698 1.31875,-2.89723 -1.18541,-3.88232c-0.55365,-0.21775 -1.10373,-0.45881 -1.6734,-0.61484c-1.43291,-0.39239 -1.68727,-1.29805 -1.11783,-2.64668c0.27156,-0.64312 0.531,-1.30258 0.70108,-1.98156c0.36078,-1.44027 1.11356,-1.56095 2.32415,-1.07751c1.70125,0.67935 3.34663,1.59191 5.1831,1.85178c0.71983,-1.0471 1.21916,-2.06545 1.23106,-3.45017c-3.47928,-1.37362 -6.97048,-2.75194 -10.40678,-4.1086c-2.59908,6.98724 -5.0737,13.71017 -7.6141,20.40482c-0.46057,1.21373 -0.33964,1.8316 0.89238,2.30107c2.63955,1.00588 5.26203,2.07852 7.832,3.26936c1.55106,0.7187 1.97109,-0.28769 2.42293,-1.43061c0.45114,-1.14111 0.22628,-1.79691 -0.97757,-2.3274c-1.80057,-0.79355 -3.87118,-1.03995 -5.41006,-2.66208c0.36302,-1.08138 0.77939,-2.09379 1.04032,-3.14978c0.44512,-1.80132 1.31464,-2.23794 2.91818,-1.41429c1.11268,0.57153 2.26816,1.17236 3.83993,0.91881m70.00926,5.08256c-2.75849,-0.43639 -5.51715,-0.87165 -8.27538,-1.30982c-0.90938,-0.14444 -1.65903,-0.28301 -1.98798,1.09769c-0.43809,1.83892 -0.31951,2.85232 1.81091,2.75384c1.99814,-0.09237 2.8129,0.72471 2.34293,3.15877c-0.95985,4.97154 -1.53164,10.02683 -2.33538,15.03445c-0.23934,1.49116 -0.04231,2.3899 1.58353,2.54624c1.49496,0.14371 2.42628,-0.26226 2.55972,-2.02501c0.10593,-1.39965 0.28229,-2.79576 0.48324,-4.1843c0.63245,-4.37045 1.29125,-8.73659 1.9189,-12.96318c1.80236,-0.5404 3.32539,0.21527 4.95996,-0.07997c0.16027,-1.12586 0.30946,-2.17386 0.4755,-3.34013c-1.15958,-0.24548 -2.15802,-0.45683 -3.53596,-0.68858m-63.46051,-8.86597c-1.47423,4.52887 -2.94522,9.05892 -4.42543,13.58554c-0.29211,0.89329 -0.8149,1.88458 0.43075,2.37196c3.02315,1.18297 6.00779,2.50833 9.11144,3.303c1.73185,-3.48627 1.71618,-3.53066 -1.50115,-4.71061c-0.4184,-0.15343 -0.82626,-0.37365 -1.25667,-0.45008c-2.10135,-0.37311 -2.30105,-1.42764 -1.58407,-3.48439c1.84138,-5.28241 3.42191,-10.66784 5.09267,-15.9676c-3.38986,-2.02596 -3.64221,-1.92287 -4.70613,1.64461c-0.33488,1.12289 -0.71232,2.2314 -1.16141,3.70756m128.02411,28.20529c-0.22899,-4.70066 -0.65323,-9.39085 -0.56073,-14.10844c0.03464,-1.76638 -0.46227,-3.01232 -2.5564,-2.88515c-2.09481,0.12722 -1.61637,1.62806 -1.5605,2.86961c0.27461,6.10509 0.63292,12.20607 0.88276,18.31218c0.06299,1.53924 -0.00263,2.71956 2.05251,2.65757c1.90999,-0.05763 2.2494,-1.02035 2.10136,-2.66645c-0.11216,-1.24717 -0.22173,-2.49464 -0.35899,-4.17932z" style="fill: #000000;"/>
      <path d="m233.59003,380.45899c6.2404,4.14379 12.34942,8.19341 18.75998,12.44293c-2.59891,1.52438 -4.82879,0.59072 -7.00828,0.33461c-1.08633,-0.12769 -2.14639,-0.54694 -3.20735,-0.87463c-5.23753,-1.61754 -8.40686,-0.25803 -11.0016,4.89024c-2.30296,4.56934 -4.5468,9.17395 -6.73842,13.80499c-2.53105,5.34831 -4.28157,5.76461 -8.44992,1.72014c-1.90362,-1.84705 -3.8675,-3.65685 -5.2364,-6.04715c-1.64676,-2.87545 -2.12074,-5.7958 -0.5424,-8.9034c4.49407,-8.84834 8.9629,-17.71121 13.45229,-26.56224c0.12609,-0.2486 0.37226,-0.42818 0.79004,-0.89338c2.37027,4.15519 5.4419,7.36436 9.18207,10.0879z" style="fill: #000000;"/>
      <path d="m562.76497,392.69623c-2.08914,-1.10335 -4.02207,-1.17208 -6.13488,-0.48528c-3.41219,1.10917 -6.8637,2.26651 -10.97006,1.54231c9.70881,-7.44828 21.0809,-11.91851 27.8949,-22.54951c0.81165,-0.06565 0.93787,0.57452 1.16701,1.02098c4.24645,8.27466 8.39996,16.60481 12.74685,24.81902c2.09721,3.96308 1.64984,7.47177 -0.84507,10.90761c-1.91023,2.63068 -4.15741,4.91 -6.78053,6.69521c-2.67284,1.81906 -4.07014,1.37604 -5.54377,-1.55891c-2.53902,-5.05692 -5.02515,-10.14392 -7.56223,-15.20192c-0.97599,-1.94571 -2.04853,-3.83142 -3.97222,-5.18951z" style="fill: #000000;"/>
      <path d="m545.898,366.38365c4.36007,-2.70444 8.71262,-5.00742 13.5422,-6.0514c2.82289,-0.61022 5.56416,-0.36423 8.12283,1.24115c3.82157,2.39774 4.75657,6.05606 2.26592,9.94594c-2.4402,3.81109 -5.64883,6.85168 -9.40155,9.14732c-6.26524,3.83262 -12.5897,7.55572 -18.90358,11.29747c-0.49815,0.29522 -1.10689,0.52919 -1.66619,0.53394c-5.65477,0.04809 -9.94839,-7.43432 -7.37241,-12.83438c1.92497,-4.03539 5.03522,-6.93393 8.34862,-9.59951c1.58593,-1.27583 3.28139,-2.39738 5.06416,-3.68053z" style="fill: #000000;"/>
      <path d="m241.12109,382.46051c-4.25842,-2.30675 -8.03128,-5.02972 -11.23578,-8.59682c-1.47174,-1.63828 -2.48245,-3.53324 -2.70495,-5.8005c-0.63985,-6.52005 4.80719,-9.0836 9.33578,-8.26469c11.34532,2.05156 20.79588,7.97865 27.81751,17.72462c5.48146,7.60826 -0.18556,12.806 -6.3095,14.85485c-0.91478,0.30606 -1.53114,-0.45927 -2.17578,-0.93214c-4.63064,-3.39673 -9.4,-6.53018 -14.72728,-8.98532z" style="fill: #000000;"/>
      <path d="m260.26513,402.36547c-1.59821,3.54212 -3.13251,6.9204 -4.76173,10.50769c-7.09779,-2.93171 -13.71493,-6.28232 -18.9267,-12.08053c-1.90186,-2.11585 -1.13228,-4.52926 1.51307,-5.47293c1.44696,-0.51619 2.87804,-0.24975 4.34515,0.09708c4.96789,1.17444 9.95797,2.11617 15.07764,1.05457c1.96209,-0.40686 3.7312,-1.31269 5.46121,-2.36492c0.20701,0.14556 0.41401,0.29113 0.62102,0.43669c-1.08858,2.55284 -2.17716,5.10568 -3.32966,7.82236z" style="fill: #000000;"/>
      <path d="m535.42111,396.7798c-0.27883,-0.87624 -0.82703,-1.51936 -0.51911,-2.34177c0.17388,-0.06051 0.3614,-0.19219 0.43227,-0.14096c6.16175,4.45367 12.71801,2.60856 19.21102,1.31006c1.82983,-0.36593 3.58926,-0.81598 5.43282,-0.14044c2.31826,0.84948 2.92812,2.46964 1.71648,4.73324c-0.83223,1.55478 -2.26191,2.45896 -3.48877,3.56988c-4.26516,3.86218 -9.23,6.42077 -14.36319,8.67537c-1.30289,0.57227 -1.68926,-0.18103 -2.12465,-1.19002c-2.06155,-4.77755 -4.14658,-9.54364 -6.29687,-14.47537z" style="fill: #000000;"/>
      <path d="m242.46532,439.64287c-0.13219,0.20575 -0.17253,0.27134 -0.21642,0.33415c-3.03325,4.34142 -3.8132,4.47387 -8.06211,1.31518c-0.17231,-1.45007 0.88508,-2.38007 1.47588,-3.49108c1.4123,-2.65596 2.85058,-5.30103 4.40162,-7.86605c0.58203,-0.96251 0.80787,-2.75832 2.6887,-1.84993c2.49058,1.20292 3.48784,2.63825 2.96078,4.73481c-0.61594,2.45009 -1.95344,4.53512 -3.24844,6.82291z" style="fill: #000000;"/>
      <path d="m557.85335,441.40424c-1.54444,-2.86846 -3.06216,-5.55783 -4.44532,-8.32343c-0.45307,-0.90589 -1.71732,-1.94496 -0.35317,-3.05892c1.35583,-1.10721 2.95038,-2.30277 4.6013,-0.92512c2.99137,2.49623 4.86085,5.87776 5.59871,9.84311c0.37521,2.01662 -1.11889,4.05143 -3.02444,4.58875c-1.59332,0.44924 -1.63822,-1.17541 -2.37708,-2.12438z" style="fill: #000000;"/>
      <path d="m490.9072,458.84039c1.91521,0.41369 3.33981,2.53453 3.1343,4.73001c-0.25915,2.76825 -2.62483,2.16007 -4.25409,2.91724c-1.06717,-1.77962 -1.51003,-3.71047 -1.73803,-5.59099c-0.23427,-1.93206 1.71664,-1.42756 2.85782,-2.05626z" style="fill: #000000;"/>
      <path d="m505.87027,462.20952c-0.49555,-1.82796 -1.07034,-3.45516 -1.33962,-5.13771c-0.31699,-1.98078 0.393,-3.61801 2.29061,-4.27082c1.84608,-0.63507 2.865,0.55427 3.62065,2.18118c1.34211,2.88957 2.38658,5.90174 3.04204,9.03528c0.39463,1.88654 0.35958,3.85813 -1.66514,4.84656c-1.53955,0.75155 -3.2453,-0.26047 -4.36723,-2.58536c-0.6016,-1.24665 -1.02279,-2.59199 -1.58133,-4.06913z" style="fill: #000000;"/>
      <path d="m315.8791,472.82714c-0.50796,0.98039 -0.84017,1.88242 -1.38913,2.59522c-0.89824,1.16645 -2.06816,1.34341 -3.38244,0.71138c-1.61955,-0.77873 -2.06752,-2.22076 -1.8268,-3.87903c0.49477,-3.4082 1.27798,-6.75141 2.62752,-9.90744c0.69706,-1.63014 1.73156,-2.75237 3.62284,-2.25414c1.95055,0.51385 2.51865,2.0577 2.39985,3.93571c-0.18908,2.98853 -1.07952,5.81715 -2.05185,8.79831z" style="fill: #000000;"/>
      <path d="m334.33032,466.68047c0.01931,0.82647 0.07497,1.45872 0.00057,2.07313c-0.14441,1.19254 -0.47566,2.42804 -1.60031,2.87621c-1.29229,0.51492 -2.56875,-0.19725 -3.80424,-0.61472c-0.5032,-0.17001 -0.4759,-0.70037 -0.35224,-1.19439c0.20694,-0.82673 0.34465,-1.67566 0.59037,-2.4882c0.31157,-1.03044 0.01492,-2.71739 1.47951,-2.71555c1.35086,0.0017 3.04099,-0.06633 3.68634,2.06353z" style="fill: #000000;"/>
    </g>
    <g>
      <path d="m414.40388,327.34982c0.05192,12.49878 -0.11936,24.77632 -0.86926,37.00451c-1.37168,22.36668 -4.39229,44.42281 -10.17417,65.86783c-0.88024,3.26478 -1.71297,6.54727 -2.56518,9.82249c-0.18211,0.69988 -0.27097,1.4581 -0.79852,1.94656c-0.82229,-0.40675 -0.82206,-1.23769 -1.0095,-1.93218c-4.19449,-15.54092 -7.72867,-31.27173 -9.87149,-47.40499c-1.1688,-8.79985 -2.05607,-17.63132 -2.59801,-26.52098c-1.59082,-26.09524 -1.6139,-52.22608 -1.32013,-78.35941c0.20639,-18.36126 0.55003,-36.72303 1.07069,-55.0752c0.15989,-5.63608 0.26085,-11.26915 0.26202,-16.90263c0.00044,-2.078 0.65856,-2.57206 2.29124,-2.55489c7.38476,0.07766 14.77108,0.09648 22.15534,-0.0093c1.85064,-0.0265 2.26207,0.80278 2.30363,2.80748c0.33628,16.22473 0.59472,32.45037 0.83957,48.67751c0.24376,16.15441 0.42382,32.3082 0.50952,48.46377c0.02466,4.6462 -0.14495,9.29376 -0.22575,14.16942m-17.61508,-6.17681c0.06956,19.90742 1.1561,39.75514 2.33276,59.59456c1.29469,-50.55433 1.16849,-101.09574 -0.09366,-151.63572c0.1142,5.26849 -0.48156,10.49705 -0.65325,15.74396c-0.40823,12.47633 -1.14022,24.94089 -1.40345,37.42007c-0.27,12.80043 -0.13823,25.61258 -0.1824,38.87712z" style="fill: #000000;"/>
      <path d="m440.55298,202.3662c0.56244,2.98605 -0.36062,5.08182 -2.31614,6.61774c-1.54625,1.21447 -3.27311,1.81202 -5.13454,1.83444c-1.49019,0.01794 -2.98059,0.01115 -4.47088,0.02062c-20.01938,0.1271 -40.03878,0.25571 -60.05816,0.38218c-2.22363,0.01405 -4.39367,-0.23827 -6.35711,-1.65031c-2.38384,-1.71439 -3.41447,-4.46916 -2.71852,-7.36433c0.68749,-2.85988 2.60073,-4.48099 5.428,-4.48282c19.30929,-0.0124 38.61857,-0.00733 57.92786,-0.00751c4.08217,-0.00004 8.1644,-0.01368 12.24649,0.00734c2.89032,0.0149 4.37945,1.26709 5.453,4.64265z" style="fill: #000000;"/>
      <path d="m389.81804,161.28119c7.17413,-3.36306 14.20992,-6.65546 21.24131,-9.9608c1.13329,-0.53274 2.06081,-0.67946 2.17313,1.23575c0.20933,3.56954 0.41946,7.13642 0.38392,10.72092c-0.0185,1.86657 -0.7417,2.90671 -2.19645,3.5694c-7.12048,3.24357 -14.22415,6.53859 -21.32167,9.85132c-2.39061,1.11579 -3.20906,0.62651 -3.3949,-2.42579c-0.19868,-3.26309 -0.27202,-6.53769 -0.35864,-9.80878c-0.02873,-1.0842 0.41613,-1.90666 1.31524,-2.29817c0.66709,-0.29048 1.34511,-0.54625 2.15805,-0.88386z" style="fill: #000000;"/>
      <path d="m398.75295,138.37885c3.56403,-1.66744 7.01218,-3.20499 10.39375,-4.92396c1.64432,-0.83586 2.50479,-0.16603 2.89713,1.61728c0.78165,3.55307 0.80353,7.22076 0.98388,10.85572c0.06279,1.26547 -0.82155,1.77652 -1.70402,2.19049c-7.62635,3.57744 -15.25023,7.16217 -22.87197,10.75314c-1.58434,0.74645 -2.23326,0.36343 -2.24219,-1.61443c-0.01818,-4.03437 0.32776,-8.04754 0.80705,-12.03924c0.15823,-1.31794 0.86586,-2.21156 1.98181,-2.53004c3.35281,-0.95688 6.38611,-2.90375 9.75456,-4.30896z" style="fill: #000000;"/>
      <path d="m388.24035,108.38307c1.61729,-0.57149 3.11516,-0.31763 4.59541,-0.32062c5.50177,-0.0111 11.00359,0.03417 16.50542,0.0513c3.5009,0.01091 4.67405,1.36327 4.68349,5.42228c0.01714,7.3675 -0.97455,8.52322 -7.33979,8.52895c-5.17831,0.00467 -10.35666,0.01652 -15.53492,-0.00512c-3.95179,-0.01651 -5.39089,-1.72404 -5.38419,-6.31335c0.00156,-1.06619 0.01626,-2.13243 0.03095,-3.19853c0.02664,-1.93305 0.69124,-3.37552 2.44362,-4.16492z" style="fill: #000000;"/>
      <path d="m410.58769,170.17892c1.98213,-0.82681 2.55372,-0.37204 2.37758,1.82431c-0.27921,3.48131 -0.61774,6.956 -0.92554,10.43419c-0.13475,1.52249 -0.80152,2.41853 -2.05533,2.96199c-6.06904,2.63058 -12.12593,5.30214 -18.15576,8.05434c-1.58338,0.72271 -2.31512,0.08091 -2.70517,-1.64073c-0.66771,-2.94722 -0.99643,-5.9651 -1.3469,-8.97753c-0.18253,-1.56896 0.31129,-2.42944 1.68788,-3.03524c7.02653,-3.09221 14.00246,-6.34359 21.12324,-9.62134z" style="fill: #000000;"/>
      <path d="m389.03083,126.57485c0.28584,-1.63159 1.03349,-2.09326 2.26822,-2.08119c5.75882,0.05632 11.51829,0.03075 17.27749,0.01651c1.02645,-0.00254 1.96431,0.00755 2.07582,1.63711c0.10599,1.54885 0.75122,3.27527 -1.04527,4.10935c-2.6456,1.22831 -5.31508,2.3854 -7.96054,3.61412c-3.96761,1.84281 -7.93014,3.70137 -11.88064,5.59427c-1.68541,0.80758 -2.28387,0.46341 -2.29288,-1.70566c-0.01562,-3.75519 0.72031,-7.38823 1.55779,-11.1845z" style="fill: #000000;"/>
      <path d="m409.14488,195.78319c-4.37457,0.00407 -8.59094,0.00407 -12.80779,0.00407c-0.04113,-1.62168 0.84434,-1.6678 1.43281,-1.94766c3.7763,-1.79585 7.56858,-3.54558 11.3638,-5.28573c1.52388,-0.69872 2.24692,-0.08711 2.09778,1.8304c-0.09967,1.28159 -0.34432,2.54942 -0.5535,3.81669c-0.14525,0.87996 -0.46144,1.60192 -1.5331,1.58224z" style="fill: #000000;"/>
    </g>
    <g id="svg_12" transform="rotate(22.628, 516.5, 316.5)">
      <path id="svg_11" d="m545.26484,300.57721c-20.33785,37.01157 -41.05809,73.67215 -62.25666,110.02096c-0.05308,0.09099 -0.26616,0.07458 -0.76166,0.19546c9.59938,-31.25805 19.43337,-62.17014 29.45366,-93.19761c-10.08792,0.87332 -20.1791,2.0215 -30.33702,2.69096c0.18757,-1.50154 60.17175,-97.47193 61.29776,-98.08058c-7.21134,23.2168 -14.38998,46.32826 -21.67623,69.78623c10.26215,-0.51627 20.36046,-1.7745 30.47979,-2.67294c0.05746,0.12716 0.11493,0.25431 0.17238,0.38147c-2.10855,3.60144 -4.21708,7.20287 -6.37201,10.87605z" style="fill: #000000;"/>
    </g>
    <g id="svg_14" transform="rotate(9.4227, 475.5, 235.5)">
      <path id="svg_13" d="m496.31246,223.10173c-14.71522,28.81903 -29.70712,57.36477 -45.04511,85.66775c-0.03841,0.07085 -0.19258,0.05807 -0.55109,0.15219c6.94552,-24.33906 14.0608,-48.40874 21.31087,-72.56825c-7.299,0.68001 -14.60036,1.57404 -21.95001,2.09531c0.13571,-1.16918 43.53659,-75.89645 44.3513,-76.37038c-5.21769,18.07775 -10.41171,36.07347 -15.68359,54.339c7.42507,-0.40199 14.73158,-1.38172 22.05331,-2.08128c0.04158,0.09901 0.08315,0.19802 0.12472,0.29703c-1.52561,2.80426 -3.05122,5.60851 -4.61039,8.46863z" style="fill: #000000;"/>
    </g>
    <g transform="rotate(-23, 284.739, 318.882)">
      <g transform="matrix(-0.216581, 0, 0, 0.23626, 325.875, 241.765)" id="svg_16">
        <path stroke-width=" 1px" d="m318.44187,260.11599c-90.859,154.095 -183.426,306.729 -278.13,458.065c-0.237,0.379 -1.189,0.31 -3.403,0.814c42.885,-130.141 86.818,-258.842 131.584,-388.022c-45.068,3.636 -90.15,8.416 -135.53,11.203c0.838,-6.251 268.815,-405.821 273.846,-408.351c-32.217,96.661 -64.287,192.884 -96.838,290.55c45.846,-2.15 90.959,-7.388 136.167,-11.129c0.257,0.53 0.514,1.059 0.77,1.588c-9.42,14.995 -18.839,29.989 -28.466,45.282z" style="fill: #000000;"/>
      </g>
    </g>
    <g id="svg_19" transform="rotate(-9, 321.239, 235.882)">
      <g transform="matrix(-0.169775, 0, 0, 0.192342, 323.594, 269.431)" id="svg_18">
        <path id="svg_17" stroke-width=" 1px" d="m142.38218,-240.71507c-90.859,154.095 -183.426,306.729 -278.13,458.065c-0.237,0.379 -1.189,0.31 -3.403,0.814c42.885,-130.141 86.818,-258.842 131.584,-388.022c-45.068,3.636 -90.15,8.416 -135.53,11.203c0.838,-6.251 268.815,-405.821 273.846,-408.351c-32.217,96.661 -64.287,192.884 -96.838,290.55c45.846,-2.15 90.959,-7.388 136.167,-11.129c0.257,0.53 0.514,1.059 0.77,1.588c-9.42,14.995 -18.839,29.989 -28.466,45.282z" style="fill: #000000;"/>
      </g>
    </g>
  </g>
</svg>